<?xml version="1.0" encoding="UTF-8" standalone="no"?>
<svg
   xmlns:dc="http://purl.org/dc/elements/1.1/"
   xmlns:cc="http://creativecommons.org/ns#"
   xmlns:rdf="http://www.w3.org/1999/02/22-rdf-syntax-ns#"
   xmlns:svg="http://www.w3.org/2000/svg"
   xmlns="http://www.w3.org/2000/svg"
   xmlns:sodipodi="http://sodipodi.sourceforge.net/DTD/sodipodi-0.dtd"
   xmlns:inkscape="http://www.inkscape.org/namespaces/inkscape"
   version="1.1"
   viewBox="-30 -210 512 512"
   id="svg6"
   sodipodi:docname="buscar.svg"
   width="512"
   height="512"
   inkscape:version="0.92.2 (5c3e80d, 2017-08-06)">
  <metadata
     id="metadata12">
    <rdf:RDF>
      <cc:Work
         rdf:about="">
        <dc:format>image/svg+xml</dc:format>
        <dc:type
           rdf:resource="http://purl.org/dc/dcmitype/StillImage" />
        <dc:title />
      </cc:Work>
    </rdf:RDF>
  </metadata>
  <defs
     id="defs10" />
  <sodipodi:namedview
     pagecolor="#ffffff"
     bordercolor="#666666"
     borderopacity="1"
     objecttolerance="10"
     gridtolerance="10"
     guidetolerance="10"
     inkscape:pageopacity="0"
     inkscape:pageshadow="2"
     inkscape:window-width="1920"
     inkscape:window-height="1017"
     id="namedview8"
     showgrid="false"
     inkscape:zoom="0.20996441"
     inkscape:cx="-160.35956"
     inkscape:cy="598.98713"
     inkscape:window-x="-8"
     inkscape:window-y="-8"
     inkscape:window-maximized="1"
     inkscape:current-layer="svg6" />
  <g
     transform="matrix(0.20601533,0,0,-0.21152619,-35.867926,219.22137)"
     id="g4"
     style="stroke-width:4.79036045;fill:#f9f9f9">
    <path
       d="m 929,457 q 175,0 320,85 144,85 229,232 85,145 85,316 0,173 -86,319 -43,74 -102,132.5 -59,58.5 -129.5,99.5 -70.5,41 -150.5,62.5 -80,21.5 -166,21.5 -174,0 -319,-85 Q 464,1555 380,1410 294,1266 294,1090 294,828 478,643 664,457 929,457 Z M 2375,-75 q 0,-91 -95,-186 -92,-93 -186,-93 -45,0 -71,26 L 1599,96 q -26,26 -26,71 0,23 7,49 7,26 22,52 L 1416,453 Q 1201,289 927,289 709,289 525,395 342,501 234,685 179,778 152.5,879 126,980 126,1090 q 0,156 57.5,302 57.5,146 177.5,266 119,120 263,177.5 144,57.5 305,57.5 110,1 210,-26 100,-27 192,-80 91,-54 164,-126 73,-72 127,-166 110,-187 110,-402 0,-271 -166,-488 l 185,-185 q 48,26 100,26 48,0 73,-26 L 2349,-4 q 26,-28 26,-71 z"
       id="path2"
       inkscape:connector-curvature="0"
       style="fill:#f9f9f9;stroke-width:4.79036045" />
  </g>
</svg>
