<?xml version="1.0"?>
<svg xmlns="http://www.w3.org/2000/svg" viewBox="0 0 64 64" width="512px" height="512px" class=""><g><g id="Storage"><rect x="31" y="4" width="2" height="2" data-original="#000000" class="active-path" data-old_color="#F2F2F2" fill="#FDFCFC"/><path d="M24,4V20H40V4H35V7a1,1,0,0,1-1,1H30a1,1,0,0,1-1-1V4Zm4,15H26a1,1,0,0,1,0-2h2a1,1,0,0,1,0,2Zm0-3H26a1,1,0,0,1,0-2h2a1,1,0,0,1,0,2Z" data-original="#000000" class="active-path" data-old_color="#F2F2F2" fill="#FDFCFC"/><rect x="40" y="22" width="2" height="4" data-original="#000000" class="active-path" data-old_color="#F2F2F2" fill="#FDFCFC"/><rect x="13" y="42" width="2" height="4" data-original="#000000" class="active-path" data-old_color="#F2F2F2" fill="#FDFCFC"/><path d="M15,22V40H31V22H26v5a1,1,0,0,1-1,1H21a1,1,0,0,1-1-1V22Zm4,17H17a1,1,0,0,1,0-2h2a1,1,0,0,1,0,2Zm0-3H17a1,1,0,0,1,0-2h2a1,1,0,0,1,0,2Z" data-original="#000000" class="active-path" data-old_color="#F2F2F2" fill="#FDFCFC"/><rect x="31" y="42" width="2" height="4" data-original="#000000" class="active-path" data-old_color="#F2F2F2" fill="#FDFCFC"/><rect x="22" y="22" width="2" height="4" data-original="#000000" class="active-path" data-old_color="#F2F2F2" fill="#FDFCFC"/><path d="M6,42V60H22V42H17v5a1,1,0,0,1-1,1H12a1,1,0,0,1-1-1V42Zm4,17H8a1,1,0,0,1,0-2h2a1,1,0,0,1,0,2Zm0-3H8a1,1,0,0,1,0-2h2a1,1,0,0,1,0,2Z" data-original="#000000" class="active-path" data-old_color="#F2F2F2" fill="#FDFCFC"/><rect x="49" y="42" width="2" height="4" data-original="#000000" class="active-path" data-old_color="#F2F2F2" fill="#FDFCFC"/><path d="M49,22H44v5a1,1,0,0,1-1,1H39a1,1,0,0,1-1-1V22H33V40H49ZM37,39H35a1,1,0,0,1,0-2h2a1,1,0,0,1,0,2Zm0-3H35a1,1,0,0,1,0-2h2a1,1,0,0,1,0,2Z" data-original="#000000" class="active-path" data-old_color="#F2F2F2" fill="#FDFCFC"/><path d="M58,42H53v5a1,1,0,0,1-1,1H48a1,1,0,0,1-1-1V42H42V60H58ZM46,59H44a1,1,0,0,1,0-2h2a1,1,0,0,1,0,2Zm0-3H44a1,1,0,0,1,0-2h2a1,1,0,0,1,0,2Z" data-original="#000000" class="active-path" data-old_color="#F2F2F2" fill="#FDFCFC"/><path d="M35,47a1,1,0,0,1-1,1H30a1,1,0,0,1-1-1V42H24V60H40V42H35ZM28,59H26a1,1,0,0,1,0-2h2a1,1,0,0,1,0,2Zm0-3H26a1,1,0,0,1,0-2h2a1,1,0,0,1,0,2Z" data-original="#000000" class="active-path" data-old_color="#F2F2F2" fill="#FDFCFC"/></g></g> </svg>
